<svg width="256" height="256" viewBox="0 0 256 256" fill="none" xmlns="http://www.w3.org/2000/svg">
  <rect width="256" height="256" rx="64" fill="#FFF4E5"/>
  <rect x="34" y="34" width="188" height="188" rx="48" fill="#FF9F1C"/>
  <rect x="66" y="140" width="124" height="28" rx="14" fill="#FFE3B5"/>
  <rect x="92" y="84" width="72" height="74" rx="20" fill="white"/>
  <rect x="112" y="68" width="32" height="20" rx="10" fill="white"/>
  <path d="M175.5 64L179.542 74.4583L190 78.5L179.542 82.5417L175.5 93L171.458 82.5417L161 78.5L171.458 74.4583L175.5 64Z" fill="#FFF4E5"/>
  <path d="M74 82L76.6946 88.3054L83 91L76.6946 93.6946L74 100L71.3054 93.6946L65 91L71.3054 88.3054L74 82Z" fill="#FFF4E5"/>
</svg>
