<svg width="1280" height="920" viewBox="0 0 1280 920" fill="none" xmlns="http://www.w3.org/2000/svg">
  <rect width="1280" height="920" rx="48" fill="#FFF9F0"/>
  <rect x="120" y="112" width="1040" height="696" rx="40" fill="white" stroke="#FFD8A8" stroke-width="8"/>
  <rect x="176" y="170" width="474" height="580" rx="28" fill="#FFF6EA"/>
  <rect x="734" y="170" width="370" height="132" rx="28" fill="#FFF6EA"/>
  <rect x="734" y="334" width="370" height="132" rx="28" fill="#FFF6EA"/>
  <rect x="734" y="498" width="370" height="132" rx="28" fill="#FFF6EA"/>
  <rect x="734" y="662" width="370" height="88" rx="28" fill="#FFF6EA"/>
  <rect x="270" y="298" width="286" height="220" rx="50" fill="#FF9F1C"/>
  <rect x="346" y="252" width="134" height="58" rx="20" fill="#FF9F1C"/>
  <rect x="244" y="534" width="338" height="26" rx="13" fill="#FFD08B"/>
  <rect x="774" y="214" width="122" height="44" rx="22" fill="#FFE0AF"/>
  <rect x="918" y="214" width="122" height="44" rx="22" fill="#FFBF56"/>
  <rect x="774" y="378" width="146" height="44" rx="22" fill="#FFBF56"/>
  <rect x="942" y="378" width="98" height="44" rx="22" fill="#FFE0AF"/>
  <rect x="774" y="542" width="122" height="44" rx="22" fill="#FFE0AF"/>
  <rect x="918" y="542" width="122" height="44" rx="22" fill="#FFBF56"/>
  <rect x="774" y="690" width="266" height="34" rx="17" fill="#FFA42A"/>
  <path d="M184 138H1096" stroke="#FFE6BF" stroke-width="8" stroke-linecap="round"/>
  <circle cx="214" cy="138" r="10" fill="#FFD18E"/>
  <circle cx="246" cy="138" r="10" fill="#FFC76D"/>
  <circle cx="278" cy="138" r="10" fill="#FFAA33"/>
</svg>
