<svg width="1280" height="920" viewBox="0 0 1280 920" fill="none" xmlns="http://www.w3.org/2000/svg">
  <rect width="1280" height="920" rx="48" fill="#FFF9F0"/>
  <circle cx="984" cy="162" r="208" fill="#FFE6BF"/>
  <circle cx="192" cy="780" r="196" fill="#FFF1DA"/>
  <rect x="122" y="118" width="1036" height="684" rx="40" fill="white" stroke="#FFD7A0" stroke-width="8"/>
  <rect x="182" y="178" width="416" height="564" rx="28" fill="#FFF4E6"/>
  <rect x="232" y="612" width="316" height="54" rx="18" fill="#FFE5BE"/>
  <rect x="304" y="262" width="172" height="248" rx="42" fill="#FFA62B"/>
  <rect x="354" y="218" width="72" height="58" rx="20" fill="#FFA62B"/>
  <rect x="267" y="508" width="248" height="22" rx="11" fill="#FFC76D"/>
  <rect x="662" y="200" width="436" height="104" rx="24" fill="#FFF5E8"/>
  <rect x="694" y="232" width="164" height="18" rx="9" fill="#F39C12"/>
  <rect x="694" y="266" width="280" height="14" rx="7" fill="#FAD49A"/>
  <rect x="662" y="334" width="436" height="166" rx="28" fill="#FFF5E8"/>
  <rect x="694" y="370" width="102" height="86" rx="18" fill="#FFD595"/>
  <rect x="822" y="370" width="102" height="86" rx="18" fill="#FFBE55"/>
  <rect x="950" y="370" width="116" height="86" rx="18" fill="#FFE1B2"/>
  <rect x="662" y="532" width="436" height="154" rx="28" fill="#FFF5E8"/>
  <rect x="694" y="570" width="118" height="62" rx="16" fill="#FFC76D"/>
  <rect x="838" y="570" width="118" height="62" rx="16" fill="#FFE2B8"/>
  <rect x="982" y="570" width="84" height="62" rx="16" fill="#FFAA33"/>
  <path d="M1038 120L1050.8 153.2L1084 166L1050.8 178.8L1038 212L1025.2 178.8L992 166L1025.2 153.2L1038 120Z" fill="#FFB545"/>
</svg>
