<svg width="1280" height="920" viewBox="0 0 1280 920" fill="none" xmlns="http://www.w3.org/2000/svg">
  <rect width="1280" height="920" rx="48" fill="#FFF9F0"/>
  <rect x="96" y="96" width="1088" height="728" rx="40" fill="white" stroke="#FFD8A8" stroke-width="8"/>
  <rect x="148" y="148" width="340" height="624" rx="28" fill="#FFF5E8"/>
  <rect x="520" y="148" width="612" height="384" rx="28" fill="#FFF5E8"/>
  <rect x="520" y="564" width="612" height="208" rx="28" fill="#FFF5E8"/>
  <rect x="184" y="198" width="184" height="20" rx="10" fill="#F39C12"/>
  <rect x="184" y="238" width="252" height="14" rx="7" fill="#FFD9A0"/>
  <rect x="184" y="306" width="268" height="54" rx="18" fill="#FFE7C1"/>
  <rect x="184" y="388" width="120" height="40" rx="20" fill="#FFBF56"/>
  <rect x="320" y="388" width="120" height="40" rx="20" fill="#FFE0AF"/>
  <rect x="184" y="454" width="120" height="40" rx="20" fill="#FFE0AF"/>
  <rect x="320" y="454" width="120" height="40" rx="20" fill="#FFBF56"/>
  <rect x="184" y="520" width="256" height="18" rx="9" fill="#FFD18E"/>
  <rect x="184" y="560" width="256" height="18" rx="9" fill="#FFD18E"/>
  <rect x="184" y="600" width="188" height="48" rx="16" fill="#FFA42A"/>
  <rect x="690" y="246" width="272" height="214" rx="48" fill="#FF9F1C"/>
  <rect x="762" y="202" width="128" height="56" rx="18" fill="#FF9F1C"/>
  <rect x="652" y="470" width="348" height="24" rx="12" fill="#FFC76D"/>
  <rect x="564" y="612" width="152" height="112" rx="22" fill="#FFE2B8"/>
  <rect x="750" y="612" width="152" height="112" rx="22" fill="#FFBF56"/>
  <rect x="936" y="612" width="152" height="112" rx="22" fill="#FFD08B"/>
  <path d="M1070 154L1082.8 187.2L1116 200L1082.8 212.8L1070 246L1057.2 212.8L1024 200L1057.2 187.2L1070 154Z" fill="#FFB545"/>
</svg>
